# xmcd CD database file
#
# Track frame offsets:
#	150
#	26695
#	43768
#	75089
#	110370
#	120067
#	147034
#	173551
#	200067
#	226105
#	244840
#
# Disc length: 3564 seconds
#
# Revision: 2
# Processed by: cddbd v1.5.2PL0 Copyright (c) Steve Scherf et al.
# Submitted via: CDex 1.81
#
DISCID=7b0dea0b
DTITLE=Muddy Waters, Johnny Winter - Breakin' It Up, Breakin' It Down
DYEAR=1977
DGENRE=Blues
TTITLE0=Black Cat Bone/Dust My Broom
TTITLE1=Can't Be Satisfied
TTITLE2=Caledonia
TTITLE3=Dealin' with the Devil
TTITLE4=Rocket 88
TTITLE5=I Done Got Over It
TTITLE6=How Long Can a Fool Go Wrong
TTITLE7=Mama Talk to Your Daughter
TTITLE8=Love Her With a Feeling
TTITLE9=Trouble No More
TTITLE10=Got My Mojo Workin'
EXTD=YEAR: 1977
EXTT0=
EXTT1=
EXTT2=
EXTT3=
EXTT4=
EXTT5=
EXTT6=
EXTT7=
EXTT8=
EXTT9=
EXTT10=
PLAYORDER=
